<?xml version="1.0" encoding="UTF-8" standalone="no"?>
<svg
   xmlns:dc="http://purl.org/dc/elements/1.1/"
   xmlns:cc="http://creativecommons.org/ns#"
   xmlns:rdf="http://www.w3.org/1999/02/22-rdf-syntax-ns#"
   xmlns:svg="http://www.w3.org/2000/svg"
   xmlns="http://www.w3.org/2000/svg"
   viewBox="0 0 985.06665 337.53333"
   height="337.53333"
   width="985.06665"
   xml:space="preserve"
   id="svg3732"
   version="1.1"><metadata
     id="metadata3738"><rdf:RDF><cc:Work
         rdf:about=""><dc:format>image/svg+xml</dc:format><dc:type
           rdf:resource="http://purl.org/dc/dcmitype/StillImage" /><dc:title></dc:title></cc:Work></rdf:RDF></metadata><defs
     id="defs3736" /><g
     transform="matrix(1.3333333,0,0,-1.3333333,0,337.53333)"
     id="g3740"><g
       transform="scale(0.1)"
       id="g3742"><path
         id="path3744"
         style="fill:#ffffff;fill-opacity:1;fill-rule:nonzero;stroke:none"
         d="m 5249.26,1177.64 -143,35.71 c 41.74,55.7 74.64,117.61 97.83,184.2 19.43,55.8 32.12,114.97 37.72,175.85 2.65,28.72 3.47,55.04 3.26,78.14 l 168.68,184.7 c 0,0 111.24,-399.01 -164.49,-658.6 z m -90.6,-6.46 c -108.23,0 -204.97,-32.6 -269.13,-83.82 -121.33,181.43 -221.78,214.74 -221.78,214.74 l 539.72,-133.16 c -15.95,1.47 -32.24,2.24 -48.81,2.24 z m 57.17,577.34 c 0,0 0.17,-0.89 0.42,-2.26 0.15,-0.87 0.34,-2 0.57,-3.39 0.11,-0.63 0.2,-1.18 0.32,-1.92 7.41,-46.59 37.95,-300.88 -133.81,-522.92 l -286.63,71.59 z m -119.89,282.05 c -351.9,0 -637.16,-285.27 -637.16,-637.16 0,-133.59 41.24,-257.5 111.51,-359.93 l 53.81,-21.29 c 38.97,-15.42 81.91,-15.428 120.89,0 49.94,19.77 104.97,19.77 154.92,0 38.98,-15.42 81.92,-15.428 120.89,0 49.95,19.77 104.98,19.77 154.93,0 38.98,-15.428 81.92,-15.409 120.89,0 49.95,19.77 104.97,19.77 154.92,0 38.98,-15.42 81.91,-15.428 120.89,0 l 47.41,18.76 c 71.34,102.91 113.26,227.76 113.26,362.46 0,351.89 -285.27,637.16 -637.16,637.16" /><path
         id="path3746"
         style="fill:#ffffff;fill-opacity:1;fill-rule:nonzero;stroke:none"
         d="m 507.301,1097.68 85.711,62.1 c 21.808,-31.77 52.941,-47.67 93.39,-47.67 26.637,0 53.512,9.4 80.637,28.17 27.121,18.77 40.688,52.08 40.688,99.9 v 473.27 h 106.394 v -483.86 c 0,-70.28 -23.266,-125.1 -69.808,-164.4 -46.543,-39.33 -98.055,-58.99 -154.536,-58.99 -40.453,0 -76.078,8.42 -106.882,25.28 -30.809,16.84 -56.012,38.91 -75.594,66.2" /><path
         id="path3748"
         style="fill:#ffffff;fill-opacity:1;fill-rule:nonzero;stroke:none"
         d="m 1184.81,1264.75 h 203.17 c -14.77,43.31 -26.41,77.25 -34.91,101.82 -8.5,24.55 -15.88,46.29 -22.14,65.24 -6.25,18.93 -12.6,38.18 -19.02,57.77 -6.41,19.56 -14.92,46.06 -25.51,79.44 -11.24,-34.67 -20.23,-62.36 -26.96,-83.05 -6.74,-20.71 -13.26,-40.69 -19.51,-59.94 -6.26,-19.26 -13.47,-40.77 -21.67,-64.52 -8.18,-23.75 -19.33,-56 -33.45,-96.76 z m -199.322,-252.29 256.132,701.95 h 87.63 l 256.13,-701.95 h -111.7 l -53.92,158.4 h -266.25 l -55.84,-158.4 H 985.488" /><path
         id="path3750"
         style="fill:#ffffff;fill-opacity:1;fill-rule:nonzero;stroke:none"
         d="m 1659.65,1011.97 v 701.48 h 106.4 v -361.56 h 2.41 l 288.39,361.56 h 126.61 l -224.84,-276.84 248.43,-424.64 h -126.14 l -191.62,342.8 -123.24,-129.03 v -213.77 h -106.4" /><path
         id="path3752"
         style="fill:#ffffff;fill-opacity:1;fill-rule:nonzero;stroke:none"
         d="m 2407.9,1264.75 h 203.17 c -14.76,43.31 -26.41,77.25 -34.91,101.82 -8.5,24.55 -15.88,46.29 -22.14,65.24 -6.25,18.93 -12.6,38.18 -19.02,57.77 -6.41,19.56 -14.92,46.06 -25.51,79.44 -11.24,-34.67 -20.24,-62.36 -26.96,-83.05 -6.75,-20.71 -13.26,-40.69 -19.51,-59.94 -6.26,-19.26 -13.47,-40.77 -21.67,-64.52 -8.17,-23.75 -19.33,-56 -33.45,-96.76 z m -199.32,-252.29 256.12,701.95 h 87.64 l 256.12,-701.95 h -111.69 l -53.92,158.4 H 2376.6 l -55.84,-158.4 h -112.18" /><path
         id="path3754"
         style="fill:#ffffff;fill-opacity:1;fill-rule:nonzero;stroke:none"
         d="m 2990.5,1619.09 v -212.81 h 160.82 c 39.78,0 69.64,11.08 89.53,33.22 19.91,22.15 29.86,48.16 29.86,78 0,35.63 -11.88,62.27 -35.63,79.92 -19.91,14.44 -45.74,21.67 -77.51,21.67 z m -106.39,-607.12 v 701.48 h 274.42 c 60.02,0 107.52,-15.41 142.5,-46.21 19.58,-17.03 36.19,-38.37 49.84,-64.04 13.64,-25.68 20.46,-54.24 20.46,-85.7 0,-45.25 -12.12,-85.29 -36.36,-120.13 -24.23,-34.82 -57.53,-59.45 -99.89,-73.89 l 162.73,-311.51 h -126.14 l -144.93,299.47 H 2990.5 v -299.47 h -106.39" /><path
         id="path3756"
         style="fill:#ffffff;fill-opacity:1;fill-rule:nonzero;stroke:none"
         d="m 3588.08,1011.97 v 607.12 h -192.11 v 94.36 h 490.61 v -94.36 h -192.11 v -607.12 h -106.39" /><path
         id="path3758"
         style="fill:#ffffff;fill-opacity:1;fill-rule:nonzero;stroke:none"
         d="m 4015.62,1264.75 h 203.16 c -14.76,43.31 -26.4,77.25 -34.9,101.82 -8.51,24.55 -15.89,46.29 -22.14,65.24 -6.25,18.93 -12.6,38.18 -19.02,57.77 -6.42,19.56 -14.93,46.06 -25.51,79.44 -11.24,-34.67 -20.24,-62.36 -26.96,-83.05 -6.75,-20.71 -13.26,-40.69 -19.52,-59.94 -6.25,-19.26 -13.47,-40.77 -21.66,-64.52 -8.18,-23.75 -19.33,-56 -33.45,-96.76 z m -199.32,-252.29 256.12,701.95 h 87.64 l 256.12,-701.95 h -111.69 l -53.92,158.4 h -266.25 l -55.85,-158.4 H 3816.3" /><path
         id="path3760"
         style="fill:#ffffff;fill-opacity:1;fill-rule:nonzero;stroke:none"
         d="m 5805.56,1011.97 v 701.48 h 100.61 l 317.29,-498.78 h 1.92 v 498.78 h 106.89 v -701.48 h -100.63 l -317.27,498.78 h -2.41 v -498.78 h -106.4" /><path
         id="path3762"
         style="fill:#ffffff;fill-opacity:1;fill-rule:nonzero;stroke:none"
         d="m 6432.02,1011.97 v 701.48 h 448.7 v -100.63 h -342.31 v -199.79 h 291.76 v -94.85 h -291.76 v -206.07 h 342.31 v -100.14 h -448.7" /><path
         id="path3764"
         style="fill:#ffffff;fill-opacity:1;fill-rule:nonzero;stroke:none"
         d="m 5996.44,697.91 c 3.95,2.449 7,5.949 9.16,10.481 2.15,4.519 3.23,9.73 3.23,15.621 0,5.879 -1.08,11.097 -3.23,15.617 -2.16,4.531 -5.19,8.019 -9.09,10.492 -3.92,2.449 -8.47,3.688 -13.65,3.688 h -50.23 v -59.59 h 50.23 c 5.1,0 9.62,1.222 13.58,3.691" /><path
         id="path3766"
         style="fill:#ffffff;fill-opacity:1;fill-rule:nonzero;stroke:none"
         d="m 6641.62,587.559 h -26.24 V 719.66 L 6569.5,614.191 h -18.72 L 6504.9,717.102 V 587.559 h -26.23 V 779.25 h 25.18 l 56.29,-126.559 56.3,126.559 h 25.18 z m -241.21,0 -14.45,42.05 h -77.37 l -14.44,-42.05 h -29 l 70.66,191.691 h 22.94 l 70.67,-191.691 z m -175.29,166.113 h -96.24 v -58.141 h 81.74 v -25.57 h -81.74 v -56.82 h 96.24 v -25.582 h -96.24 -13.84 -13.06 V 779.25 h 13.06 13.84 96.24 z m -211.54,-166.113 -40.91,81.07 h -40.04 v -81.07 h -26.9 v 191.82 h 11.74 15.16 49.17 c 11.08,0 20.81,-2.289 29.21,-6.859 8.39,-4.571 14.89,-11.04 19.51,-19.442 4.61,-8.387 6.92,-18.09 6.92,-29.066 0,-10.992 -2.33,-20.684 -6.99,-29.071 -4.66,-8.402 -11.19,-14.882 -19.58,-19.453 -3.03,-1.648 -6.28,-2.886 -9.64,-3.949 l 44.25,-83.98 z m -149.19,166.113 h -54.18 V 587.559 h -26.9 v 166.113 h -54.18 v 25.578 h 135.26 z M 5697.01,641.09 c 0,-11.692 -2.77,-21.692 -8.3,-29.988 -5.54,-8.321 -13.56,-14.641 -24.07,-18.993 -10.5,-4.347 -23.17,-6.519 -38.03,-6.519 -9.23,0 -13.84,0 -13.84,0 0,0 -4.13,0.879 -12.39,2.629 -8.26,1.75 -15.98,4.39 -23.14,7.91 -7.17,3.512 -13.86,7.91 -20.1,13.191 l 16.74,20.559 c 7.29,-6.32 15.34,-11.07 24.12,-14.231 8.79,-3.168 18.33,-4.75 28.61,-4.75 13.89,0 24.66,2.571 32.3,7.704 7.65,5.148 11.47,12.418 11.47,21.828 v 0.129 c 0,6.679 -1.74,11.972 -5.21,15.89 -3.47,3.903 -7.95,6.801 -13.45,8.699 -5.49,1.883 -12.58,3.622 -21.28,5.204 -0.27,0.089 -0.56,0.136 -0.86,0.136 -0.31,0 -0.59,0.043 -0.86,0.133 l -1.98,0.399 c -12.83,2.179 -23.27,4.671 -31.3,7.441 -8.05,2.769 -14.93,7.82 -20.64,15.16 -5.71,7.34 -8.57,17.777 -8.57,31.309 v 0.129 c 0,11.871 2.66,22 7.98,30.39 5.31,8.403 13.07,14.789 23.27,19.18 10.19,4.391 22.45,6.601 36.78,6.601 6.85,0 13.6,-0.75 20.24,-2.242 6.63,-1.5 13.18,-3.718 19.64,-6.656 6.46,-2.941 12.81,-6.66 19.05,-11.141 l -15.29,-21.359 c -7.3,5.359 -14.57,9.379 -21.82,12.066 -7.26,2.672 -14.53,4.024 -21.82,4.024 -13.1,0 -23.27,-2.621 -30.52,-7.852 -7.25,-5.23 -10.88,-12.64 -10.88,-22.211 v -0.14 c 0,-6.59 1.87,-11.77 5.6,-15.547 3.74,-3.781 8.4,-6.57 13.98,-8.371 5.58,-1.813 13.34,-3.672 23.27,-5.61 0.35,-0.089 0.68,-0.152 0.99,-0.191 0.3,-0.051 0.64,-0.121 0.99,-0.199 0.44,-0.102 0.92,-0.18 1.45,-0.27 0.52,-0.09 1.01,-0.179 1.45,-0.261 11.6,-2.379 21.29,-5.192 29.06,-8.43 7.79,-3.258 14.29,-8.512 19.52,-15.758 5.23,-7.254 7.84,-17.16 7.84,-29.73 z m -186.49,112.582 h -96.24 v -58.141 h 81.74 v -25.57 h -81.74 v -56.82 h 96.24 v -25.582 h -96.24 -13.84 -13.06 V 779.25 h 13.06 13.84 96.24 z M 5276.95,587.559 h -25.57 l -62.49,191.691 h 29.27 l 46.01,-150.289 46.01,150.289 h 29.27 z m -136,0 h -26.89 V 779.25 h 26.89 z m -78.78,0 H 4939.04 V 779.25 h 26.89 V 613.141 h 96.24 z M 4707.4,612.5 c -34.08,0 -61.71,27.641 -61.71,61.719 0,34.082 27.63,61.722 61.71,61.722 34.09,0 61.72,-27.64 61.72,-61.722 0,-34.078 -27.63,-61.719 -61.72,-61.719 z m -242.25,235.051 v -346.66 h 2415.57 v 346.66 H 4465.15" /><path
         id="path3768"
         style="fill:#ffffff;fill-opacity:1;fill-rule:nonzero;stroke:none"
         d="m 6317.39,655.199 h 59.78 l -29.89,87.012 z" /></g></g></svg>