<?xml version="1.0" encoding="utf-8"?>
<!-- Generator: Adobe Illustrator 16.0.4, SVG Export Plug-In . SVG Version: 6.00 Build 0)  -->
<!DOCTYPE svg PUBLIC "-//W3C//DTD SVG 1.1//EN" "http://www.w3.org/Graphics/SVG/1.1/DTD/svg11.dtd">
<svg version="1.1" id="Layer_1" xmlns="http://www.w3.org/2000/svg" xmlns:xlink="http://www.w3.org/1999/xlink" x="0px" y="0px"
	 width="178.456px" height="43.611px" viewBox="50.232 30.051 178.456 43.611"
	 enable-background="new 50.232 30.051 178.456 43.611" xml:space="preserve">
<title>color_choices_jakartaone</title>
<g id="Layer_2">
	<path fill="#FFFFFF" d="M178.713,30.06c-9.852,0.001-17.838,7.988-17.838,17.84c0,3.597,1.088,7.111,3.121,10.079l1.506,0.597
		c1.088,0.433,2.299,0.433,3.386,0c1.393-0.555,2.944-0.555,4.337,0c1.087,0.433,2.299,0.433,3.385,0
		c1.393-0.555,2.945-0.555,4.338,0c1.087,0.433,2.299,0.433,3.385,0c1.393-0.555,2.945-0.555,4.338,0
		c1.086,0.433,2.298,0.433,3.385,0l1.327-0.524c5.614-8.094,3.603-19.207-4.492-24.82c-2.989-2.073-6.54-3.182-10.177-3.18V30.06z
		 M182.072,37.958c0,0,0,0.025,0,0.064s0,0.056,0.018,0.092c0.017,0.037,0,0.034,0,0.056c0.207,1.305,1.064,8.422-3.746,14.641
		l-8.025-2.005L182.072,37.958z M180.475,54.123c-3.033,0-5.74,0.912-7.538,2.346c-3.396-5.078-6.21-6.011-6.21-6.011l15.119,3.729
		c-0.456-0.042-0.912-0.064-1.375-0.064H180.475z M183.011,53.943l-4.004-0.999c1.172-1.57,2.095-3.312,2.735-5.163
		c0.551-1.593,0.904-3.247,1.056-4.925c0.068-0.727,0.099-1.457,0.093-2.187l4.709-5.166c0,0,3.128,11.172-4.592,18.438
		L183.011,53.943z"/>
	<path fill="#FFFFFF" d="M50.232,56.182l2.4-1.739c0.576,0.874,1.569,1.38,2.615,1.335c0.816-0.023,1.604-0.299,2.257-0.789
		c0.762-0.523,1.14-1.459,1.14-2.801V38.941h2.979v13.547c0,1.969-0.653,3.504-1.96,4.603c-1.192,1.061-2.731,1.648-4.326,1.652
		c-1.036,0.02-2.06-0.224-2.977-0.708C51.519,57.587,50.791,56.953,50.232,56.182z"/>
	<path fill="#FFFFFF" d="M63.622,58.569l7.171-19.656h2.453l7.174,19.656H77.28l-1.509-4.435H68.32l-1.562,4.435H63.622z
		 M69.202,51.505h5.689c-0.415-1.213-0.74-2.164-0.977-2.853c-0.238-0.686-0.445-1.296-0.622-1.826
		c-0.177-0.529-0.353-1.069-0.532-1.618s-0.417-1.288-0.714-2.224c-0.313,0.971-0.565,1.746-0.756,2.324l-0.56,1.68
		c-0.174,0.538-0.375,1.14-0.605,1.806C69.896,49.461,69.588,50.364,69.202,51.505z"/>
	<path fill="#FFFFFF" d="M82.497,58.58V38.941h2.979v10.122h0.07l8.073-10.122h3.542l-6.297,7.75l6.955,11.888h-3.525l-5.365-9.598
		l-3.453,3.615v5.982H82.497z"/>
	<path fill="#FFFFFF" d="M97.868,58.569l7.171-19.656h2.453l7.173,19.656h-3.127l-1.498-4.435h-7.468l-1.562,4.435H97.868z
		 M103.449,51.505h5.689c-0.414-1.213-0.74-2.164-0.977-2.853c-0.238-0.686-0.445-1.296-0.622-1.826s-0.353-1.069-0.532-1.618
		s-0.417-1.288-0.714-2.224l-0.756,2.324l-0.546,1.68c-0.174,0.538-0.378,1.14-0.608,1.806
		C104.154,49.461,103.844,50.363,103.449,51.505z"/>
	<path fill="#FFFFFF" d="M116.782,58.58V38.941h7.684c1.68,0,3.01,0.431,3.99,1.293c0.573,0.506,1.048,1.114,1.4,1.792
		c0.382,0.741,0.575,1.566,0.56,2.4c0.02,1.198-0.335,2.374-1.016,3.36c-0.682,0.978-1.666,1.705-2.8,2.069l4.556,8.722h-3.52
		l-4.06-8.383h-3.813v8.383L116.782,58.58z M119.762,41.582v5.958h4.502c1.12,0,1.955-0.31,2.506-0.93
		c0.55-0.593,0.851-1.375,0.84-2.184c0-0.997-0.333-1.745-0.997-2.24c-0.64-0.428-1.4-0.641-2.17-0.607L119.762,41.582z"/>
	<path fill="#FFFFFF" d="M136.495,58.58V41.582h-5.379v-2.641h13.737v2.641h-5.379V58.58H136.495z"/>
	<path fill="#FFFFFF" d="M142.884,58.569l7.171-19.656h2.453l7.174,19.656h-3.128l-1.509-4.435h-7.457l-1.562,4.435H142.884z
		 M148.465,51.505h5.689c-0.414-1.213-0.74-2.164-0.978-2.853c-0.237-0.686-0.445-1.296-0.622-1.826
		c-0.176-0.529-0.352-1.069-0.531-1.618s-0.418-1.288-0.715-2.224c-0.312,0.971-0.564,1.746-0.756,2.324l-0.56,1.68
		c-0.173,0.538-0.375,1.14-0.604,1.806C149.158,49.461,148.851,50.364,148.465,51.505z"/>
	<path fill="#FFFFFF" d="M198.584,58.58V38.941h2.817l8.878,13.963h0.054V38.941h2.999V58.58h-2.82l-8.881-13.963h-0.067V58.58
		H198.584z"/>
	<path fill="#FFFFFF" d="M216.123,58.58V38.941h12.564v2.817h-9.584v5.6h8.17v2.663h-8.17v5.771h9.584v2.8L216.123,58.58z"/>
	<path fill="#FFFFFF" d="M198.584,63.953v9.709h30.104v-9.709H198.584z M204.4,70.816c-0.955,0-1.729-0.773-1.729-1.728
		s0.773-1.728,1.729-1.728c0.953,0,1.727,0.773,1.727,1.728l0,0C206.127,70.043,205.354,70.816,204.4,70.816z M212.375,71.234
		h-3.465v-5.365h0.754v4.65h2.696L212.375,71.234z M214.012,71.234h-0.752v-5.365h0.752V71.234z M217.252,71.234h-0.729l-1.75-5.365
		h0.826l1.291,4.199l1.288-4.199h0.817L217.252,71.234z M223.225,66.583h-2.693v1.638h2.287v0.715h-2.287v1.593h2.693v0.714h-3.461
		v-5.373h3.447L223.225,66.583z"/>
</g>
</svg>
