<?xml version="1.0" encoding="utf-8"?>
<!-- Generator: Adobe Illustrator 16.0.4, SVG Export Plug-In . SVG Version: 6.00 Build 0)  -->
<!DOCTYPE svg PUBLIC "-//W3C//DTD SVG 1.1//EN" "http://www.w3.org/Graphics/SVG/1.1/DTD/svg11.dtd">
<svg version="1.1"
	 id="svg3732" xmlns:dc="http://purl.org/dc/elements/1.1/" xmlns:cc="http://creativecommons.org/ns#" xmlns:rdf="http://www.w3.org/1999/02/22-rdf-syntax-ns#" xmlns:svg="http://www.w3.org/2000/svg"
	 xmlns="http://www.w3.org/2000/svg" xmlns:xlink="http://www.w3.org/1999/xlink" x="0px" y="0px" width="849.79px"
	 height="203.958px" viewBox="67.64 66.791 849.79 203.958" enable-background="new 67.64 66.791 849.79 203.958"
	 xml:space="preserve">
<g id="g3740" transform="matrix(1.3333333,0,0,-1.3333333,0,337.53333)">
	<g id="g3742" transform="scale(0.1)">
		<path id="path3744" d="M5249.261,1177.64l-142.998,35.713c41.741,55.697,74.641,117.609,97.83,184.197
			c19.431,55.8,32.117,114.968,37.72,175.851c2.651,28.718,3.472,55.038,3.259,78.139l168.677,184.702
			C5413.748,1836.241,5524.988,1437.229,5249.261,1177.64L5249.261,1177.64z M5158.66,1171.18
			c-108.23,0-204.968-32.6-269.128-83.818c-121.333,181.428-221.785,214.739-221.785,214.739l539.722-133.162
			C5191.517,1170.411,5175.228,1171.18,5158.66,1171.18z M5215.833,1748.519c0,0,0.168-0.89,0.417-2.26
			c0.146-0.868,0.337-2,0.571-3.391c0.11-0.63,0.198-1.179,0.315-1.919c7.412-46.589,37.954-300.879-133.806-522.924
			l-286.633,71.594L5215.833,1748.519z M5095.943,2030.571c-351.899,0-637.163-285.271-637.163-637.16
			c0-133.594,41.243-257.505,111.511-359.927l53.811-21.299c38.965-15.417,81.907-15.425,120.886,0
			c49.944,19.775,104.971,19.775,154.922,0c38.979-15.417,81.921-15.425,120.886,0c49.951,19.775,104.985,19.775,154.937,0
			c38.979-15.425,81.914-15.41,120.886,0c49.951,19.775,104.971,19.775,154.922,0c38.979-15.417,81.907-15.425,120.887,0
			l47.409,18.765c71.346,102.905,113.262,227.761,113.262,362.461C5733.099,1745.3,5447.828,2030.571,5095.943,2030.571"/>
		<path id="path3746" d="M507.301,1097.682l85.712,62.102c21.808-31.772,52.939-47.673,93.391-47.673
			c26.635,0,53.511,9.397,80.636,28.169c27.122,18.772,40.686,52.083,40.686,99.902v473.269h106.395v-483.86
			c0-70.276-23.265-125.105-69.807-164.399c-46.545-39.331-98.057-58.997-154.537-58.997c-40.452,0-76.077,8.423-106.882,25.283
			C552.085,1048.324,526.882,1070.392,507.301,1097.682"/>
		<path id="path3748" d="M1184.81,1264.751h203.17c-14.769,43.308-26.411,77.249-34.911,101.818
			c-8.5,24.551-15.879,46.293-22.137,65.24c-6.251,18.929-12.601,38.181-19.021,57.77c-6.412,19.563-14.919,46.062-25.51,79.442
			c-11.239-34.669-20.229-62.362-26.96-83.049c-6.738-20.713-13.26-40.69-19.508-59.941c-6.262-19.259-13.473-40.77-21.672-64.519
			C1210.078,1337.759,1198.931,1305.51,1184.81,1264.751z M985.488,1012.464l256.132,701.946h87.631l256.128-701.946h-111.698
			l-53.921,158.394h-266.25l-55.84-158.394H985.488"/>
		<path id="path3750" d="M1659.65,1011.966v701.484h106.399v-361.56h2.41l288.391,361.56h126.61l-224.839-276.841l248.43-424.644
			H2080.91l-191.62,342.803l-123.241-129.031v-213.772H1659.65"/>
		<path id="path3752" d="M2407.899,1264.751h203.17c-14.758,43.308-26.411,77.249-34.911,101.818
			c-8.5,24.551-15.879,46.293-22.137,65.24c-6.251,18.929-12.601,38.181-19.021,57.77c-6.409,19.563-14.919,46.062-25.51,79.442
			c-11.239-34.669-20.24-62.362-26.96-83.049c-6.749-20.713-13.26-40.69-19.508-59.941c-6.262-19.259-13.473-40.77-21.672-64.519
			C2433.179,1337.759,2422.021,1305.51,2407.899,1264.751L2407.899,1264.751z M2208.582,1012.464l256.117,701.946h87.642
			l256.121-701.946H2696.77l-53.921,158.394h-266.25l-55.84-158.394H2208.582"/>
		<path id="path3754" d="M2990.501,1619.089V1406.28h160.818c39.785,0,69.639,11.082,89.531,33.219
			c19.907,22.152,29.861,48.16,29.861,77.999c0,35.632-11.88,62.271-35.632,79.922c-19.907,14.44-45.74,21.669-77.505,21.669
			H2990.501z M2884.109,1011.966v701.484h274.424c60.015,0,107.52-15.41,142.5-46.212c19.578-17.029,36.189-38.368,49.834-64.039
			c13.645-25.679,20.464-54.24,20.464-85.701c0-45.249-12.122-85.287-36.358-120.128c-24.236-34.819-57.532-59.451-99.895-73.89
			l162.73-311.514H3271.67l-144.932,299.473h-136.238v-299.473H2884.109"/>
		<path id="path3756" d="M3588.077,1011.966v607.123H3395.97v94.362h490.613v-94.362h-192.114v-607.123H3588.077"/>
		<path id="path3758" d="M4015.621,1264.751h203.159c-14.758,43.308-26.396,77.249-34.9,101.818
			c-8.511,24.551-15.886,46.293-22.141,65.24c-6.248,18.929-12.598,38.181-19.021,57.77c-6.416,19.563-14.927,46.062-25.51,79.442
			c-11.235-34.669-20.237-62.362-26.953-83.049c-6.753-20.713-13.264-40.69-19.526-59.941c-6.248-19.259-13.469-40.77-21.658-64.519
			C4040.889,1337.759,4029.742,1305.51,4015.621,1264.751L4015.621,1264.751z M3816.299,1012.464l256.121,701.946h87.642
			l256.121-701.946h-111.694l-53.921,158.394h-266.25l-55.847-158.394H3816.299"/>
		<path id="path3760" d="M5805.558,1011.966v701.484h100.612l317.293-498.779h1.919v498.779h106.89v-701.484h-100.628
			l-317.271,498.783h-2.409v-498.783H5805.558"/>
		<path id="path3762" d="M6432.02,1011.966v701.484h448.704V1612.82h-342.312v-199.79h291.761v-94.849h-291.761V1112.11h342.312
			v-100.144H6432.02"/>
		<path id="path3764" d="M5996.441,697.911c3.947,2.446,7.002,5.947,9.162,10.481c2.146,4.519,3.23,9.727,3.23,15.615
			s-1.084,11.104-3.23,15.623c-2.16,4.534-5.192,8.02-9.089,10.496c-3.926,2.446-8.475,3.684-13.652,3.684h-50.229v-59.59h50.229
			C5987.96,694.22,5992.479,695.443,5996.441,697.911"/>
		<path id="path3766" d="M6641.617,587.557h-26.235v132.1l-45.879-105.469h-18.721l-45.879,102.913V587.557h-26.235v191.689h25.181
			l56.294-126.555l56.301,126.555h25.174V587.557z M6400.408,587.557l-14.45,42.056h-77.366l-14.443-42.056h-28.996l70.656,191.689
			h22.939l70.672-191.689H6400.408z M6225.118,753.67h-96.24v-58.14h81.745v-25.569h-81.745v-56.821h96.24v-25.583h-96.24h-13.836
			h-13.059v191.689h13.059h13.836h96.24V753.67z M6013.58,587.557l-40.913,81.072h-40.034v-81.072h-26.902v191.821h11.741h15.161
			h49.167c11.082,0,20.809-2.285,29.209-6.855c8.394-4.57,14.891-11.045,19.512-19.446c4.607-8.386,6.922-18.091,6.922-29.07
			c0-10.986-2.329-20.684-6.995-29.062c-4.658-8.408-11.184-14.883-19.577-19.453c-3.032-1.655-6.277-2.886-9.639-3.955
			l44.245-83.979H6013.58z M5864.393,753.67h-54.185V587.557h-26.895V753.67h-54.185v25.576h135.264V753.67z M5697.013,641.09
			c0-11.697-2.769-21.687-8.306-29.993c-5.537-8.32-13.558-14.634-24.067-18.984c-10.496-4.351-23.167-6.519-38.027-6.519
			c-9.229,0-13.843,0-13.843,0s-4.131,0.879-12.386,2.622c-8.262,1.758-15.981,4.395-23.145,7.91
			c-7.17,3.516-13.857,7.91-20.098,13.198l16.736,20.552c7.295-6.313,15.344-11.067,24.126-14.224
			c8.789-3.171,18.325-4.753,28.608-4.753c13.887,0,24.66,2.571,32.3,7.698c7.646,5.156,11.47,12.422,11.47,21.833v0.125
			c0,6.68-1.743,11.975-5.208,15.894c-3.472,3.904-7.954,6.797-13.454,8.701c-5.486,1.882-12.576,3.618-21.277,5.2
			c-0.271,0.088-0.563,0.139-0.864,0.139c-0.308,0-0.586,0.037-0.856,0.132l-1.978,0.403c-12.832,2.175-23.276,4.666-31.304,7.441
			c-8.05,2.769-14.927,7.815-20.64,15.154c-5.713,7.346-8.569,17.776-8.569,31.311v0.132c0,11.865,2.658,22.002,7.983,30.388
			c5.31,8.401,13.066,14.788,23.269,19.182c10.188,4.387,22.449,6.599,36.775,6.599c6.855,0,13.601-0.754,20.244-2.249
			c6.628-1.494,13.176-3.713,19.636-6.65c6.46-2.944,12.811-6.665,19.051-11.14l-15.286-21.365
			c-7.302,5.361-14.575,9.382-21.818,12.07c-7.266,2.673-14.531,4.028-21.826,4.028c-13.096,0-23.27-2.622-30.521-7.852
			c-7.243-5.229-10.876-12.642-10.876-22.214v-0.139c0-6.592,1.867-11.777,5.603-15.549c3.735-3.779,8.394-6.57,13.975-8.372
			c5.581-1.816,13.345-3.669,23.27-5.61c0.352-0.088,0.681-0.146,0.996-0.19c0.3-0.051,0.637-0.117,0.988-0.198
			c0.439-0.103,0.916-0.183,1.45-0.271c0.521-0.088,1.011-0.176,1.45-0.264c11.602-2.373,21.292-5.186,29.056-8.423
			c7.793-3.267,14.297-8.511,19.526-15.762s7.837-17.161,7.837-29.729V641.09z M5510.523,753.67h-96.24v-58.14h81.738v-25.569
			h-81.738v-56.821h96.24v-25.583h-96.24h-13.843h-13.059v191.689h13.059h13.843h96.24V753.67z M5276.954,587.557h-25.576
			l-62.49,191.689h29.275l46.011-150.286l46.003,150.286h29.275L5276.954,587.557z M5140.95,587.557h-26.887v191.689h26.887V587.557
			z M5062.171,587.557h-123.127v191.689h26.887V613.141h96.24V587.557z M4707.4,612.503c-34.08,0-61.707,27.642-61.707,61.714
			c0,34.087,27.627,61.729,61.707,61.729c34.087,0,61.721-27.642,61.721-61.729C4769.122,640.145,4741.487,612.503,4707.4,612.503z
			 M4465.152,847.552V500.89h2415.572v346.663H4465.152"/>
		<path id="path3768" d="M6317.389,655.204h59.78l-29.891,87.012L6317.389,655.204z"/>
	</g>
</g>
</svg>
